<svg width="17.572266" height="16.500000" viewBox="0 0 17.5723 16.5" fill="none" xmlns="http://www.w3.org/2000/svg" xmlns:xlink="http://www.w3.org/1999/xlink">
	<desc>
			Created with Pixso.
	</desc>
	<defs/>
	<path d="M10.9214 2.89282L16.8218 2.89282L16.8218 14.9141C16.8218 15.4315 16.356 15.75 15.8516 15.75L1.64355 15.75C1.13867 15.75 0.750488 15.3519 0.750488 14.8345L0.750488 2.89282L6.57324 2.89282" stroke="#2F3035" stroke-width="1.500000"/>
	<path d="M11.1357 2.89282L16.7671 2.89282C16.8057 2.89282 16.8447 2.86084 16.8057 2.82886L14.7085 0.75L2.86377 0.75L0.766602 2.82886C0.727539 2.86084 0.766602 2.89282 0.805176 2.89282L6.43652 2.89282" stroke="#2F3035" stroke-width="1.500000"/>
	<path d="M11.4644 2.89282L10.5327 0.75L7.13232 0.75L6.10742 2.89282" stroke="#2F3035" stroke-width="1.500000"/>
	<path d="M11.4644 2.89282L11.4644 7.17859L8.85449 5.67273L6.10742 7.17859L6.10742 2.89282" stroke="#2F3035" stroke-width="1.500000"/>
	<path d="M6.87207 11.4642C6.42969 11.4642 6.10742 11.026 6.10742 10.5389L6.10742 10.2467C6.10742 9.71106 6.46973 9.32141 6.87207 9.32141L10.6968 9.32141C11.1396 9.32141 11.4614 9.75977 11.4614 10.2467L11.4614 10.5389C11.502 11.0747 11.1396 11.4642 10.7368 11.4642L6.87207 11.4642Z" stroke="#2F3035" stroke-width="1.500000"/>
</svg>
