<svg width="18.000000" height="21.041382" viewBox="0 0 18 21.0414" fill="none" xmlns="http://www.w3.org/2000/svg" xmlns:xlink="http://www.w3.org/1999/xlink">
	<desc>
			Created with Pixso.
	</desc>
	<defs/>
	<path d="M6.3335 19.5414C6.3335 19.8176 6.10938 20.0414 5.8335 20.0414L1.5 20.0414C1.22363 20.0414 1 19.8176 1 19.5414L1 7.92859C1 7.78259 1.06396 7.64392 1.1748 7.54895L8.6748 1.12036C8.86182 0.959839 9.13818 0.959839 9.3252 1.12036L16.8252 7.54895C16.936 7.64392 17 7.78259 17 7.92859L17 19.5414C17 19.8176 16.7764 20.0414 16.5 20.0414L12.1665 20.0414C11.8906 20.0414 11.6665 19.8176 11.6665 19.5414L11.6665 13.6843C11.6665 13.4082 11.4429 13.1843 11.1665 13.1843L6.8335 13.1843C6.55713 13.1843 6.3335 13.4082 6.3335 13.6843L6.3335 19.5414Z" stroke="#2F3035" stroke-width="2.000000" stroke-linejoin="round"/>
</svg>
