<svg width="15.524414" height="15.227051" viewBox="0 0 15.5244 15.2271" fill="none" xmlns="http://www.w3.org/2000/svg" xmlns:xlink="http://www.w3.org/1999/xlink">
	<desc>
			Created with Pixso.
	</desc>
	<defs/>
	<path d="M5.17822 -3.92725C5.77295 -3.25049 6.07031 -2.33447 6.07031 -1.1792C6.07031 -0.0239258 5.77295 0.895508 5.17822 1.5791C4.5835 2.2627 3.78711 2.60449 2.78906 2.60449C1.79102 2.60449 0.994629 2.2627 0.399902 1.5791C-0.187988 0.895508 -0.481934 -0.0239258 -0.481934 -1.1792C-0.481934 -2.33447 -0.187988 -3.25049 0.399902 -3.92725C0.994629 -4.61084 1.79102 -4.95264 2.78906 -4.95264C3.78711 -4.95264 4.5835 -4.61084 5.17822 -3.92725ZM2.78906 0.994629C3.17188 0.994629 3.46924 0.803223 3.68115 0.42041C3.8999 0.0307617 4.00928 -0.502441 4.00928 -1.1792C4.00928 -1.86279 3.8999 -2.396 3.68115 -2.77881C3.46924 -3.16846 3.17188 -3.36328 2.78906 -3.36328C2.41309 -3.36328 2.11572 -3.16846 1.89697 -2.77881C1.68506 -2.396 1.5791 -1.86279 1.5791 -1.1792C1.5791 -0.502441 1.68506 0.0307617 1.89697 0.42041C2.11572 0.803223 2.41309 0.994629 2.78906 0.994629ZM2.99414 10.0898L0.758789 10.0898L6.49072 2.24561L11.5767 -4.70654L13.7915 -4.70654L8.21338 2.93262L2.99414 10.0898ZM14.1504 3.74268C14.7451 4.42627 15.0425 5.3457 15.0425 6.50098C15.0425 7.65625 14.7451 8.57568 14.1504 9.25928C13.5557 9.93604 12.7593 10.2744 11.7612 10.2744C10.7632 10.2744 9.9668 9.93604 9.37207 9.25928C8.78418 8.57568 8.49023 7.65625 8.49023 6.50098C8.49023 5.3457 8.78418 4.42627 9.37207 3.74268C9.9668 3.05908 10.7632 2.71729 11.7612 2.71729C12.7593 2.71729 13.5557 3.05908 14.1504 3.74268ZM10.8691 8.09033C11.0879 8.47998 11.3853 8.6748 11.7612 8.6748C12.1372 8.6748 12.4346 8.47998 12.6533 8.09033C12.8721 7.70068 12.9814 7.16748 12.9814 6.49072C12.9814 5.81396 12.8721 5.28076 12.6533 4.89111C12.4346 4.50146 12.1372 4.30664 11.7612 4.30664C11.3853 4.30664 11.0879 4.50146 10.8691 4.89111C10.6572 5.28076 10.5513 5.81396 10.5513 6.49072C10.5513 7.16748 10.6572 7.70068 10.8691 8.09033Z" fill-rule="evenodd" fill="#2F3035"/>
</svg>
