<svg width="23.958496" height="23.658875" viewBox="0 0 23.9585 23.6589" fill="none" xmlns="http://www.w3.org/2000/svg" xmlns:xlink="http://www.w3.org/1999/xlink">
	<desc>
			Created with Pixso.
	</desc>
	<defs/>
	<path d="M23.6719 22.2056L17.9858 16.8577C19.8398 15.0557 21.0142 12.6142 21.0142 9.88208C21.0142 4.41785 16.3169 0 10.5073 0C4.69727 0 0 4.41785 0 9.88208C0 15.3463 4.69727 19.7642 10.5073 19.7642C12.7319 19.7642 14.8335 19.0666 16.564 17.9622L22.374 23.4263C22.5596 23.6007 22.8066 23.6589 23.0537 23.6589C23.3013 23.6589 23.5483 23.6007 23.7339 23.4263C24.043 23.0776 24.043 22.5544 23.6719 22.2056ZM1.854 9.88208C1.854 5.40607 5.74805 1.7439 10.5073 1.7439C15.2661 1.7439 19.1602 5.40607 19.1602 9.88208C19.1602 14.3581 15.2661 18.0203 10.5073 18.0203C5.74805 18.0203 1.854 14.3581 1.854 9.88208Z" fill-rule="nonzero" fill="#2F3035"/>
</svg>
